<svg xmlns="http://www.w3.org/2000/svg" viewBox="0 0 560 560" fill="none" shape-rendering="auto" aria-hidden="true" width="512" height="512"><metadata xmlns:rdf="http://www.w3.org/1999/02/22-rdf-syntax-ns#" xmlns:xsi="http://www.w3.org/2001/XMLSchema-instance" xmlns:dc="http://purl.org/dc/elements/1.1/" xmlns:dcterms="http://purl.org/dc/terms/"><rdf:RDF><rdf:Description><dc:title>Notionists</dc:title><dc:creator>Zoish</dc:creator><dc:source xsi:type="dcterms:URI">https://heyzoish.gumroad.com/l/notionists</dc:source><dcterms:license xsi:type="dcterms:URI">https://creativecommons.org/publicdomain/zero/1.0/</dcterms:license><dc:rights>Remix of “Notionists” (https://heyzoish.gumroad.com/l/notionists) by “Zoish”, licensed under “CC0 1.0” (https://creativecommons.org/publicdomain/zero/1.0/)</dc:rights></rdf:Description></rdf:RDF></metadata><defs><radialGradient id="background-color-a0417813" gradientTransform="rotate(-45, 0.5, 0.5)"><stop offset="0%" stop-color="#4c00ff"/><stop offset="100%" stop-color="#262627"/></radialGradient><g id="mouth-variant19-a0417813"><path d="M169.6 95c-10.4-12.4-20.6-23-37.9-20.7a5 5 0 0 1-5.6-4.2c-.5-2.8 1.1-4.7 3.2-6.5 7.8-6.8 22-6.8 34.6.3 11 6 18.7 19.7 16.9 29.4-1.7 8.6-5.8 6.7-11.2 1.7" fill="black"/></g><g id="nose-variant06-a0417813"><path d="M71.5 184c5-15.6-6-26.3-10.4-38.5-8.6-23.7-16.2-47.4-15-73 .2-4.6-.7-10.7 6-10.6 5.1.2 7.9 5.2 8 10 1.6 35.5 14.5 67.7 29 99.3 2.7 6 2.1 11.1-1.1 16.9-8.5 15.1-22.3 20-38.2 20.5q-13.2.6-18.2-15.2c14-1.8 29.4 4.8 39.9-9.4" fill="black"/></g><g id="eyes-variant05-a0417813"><path d="M20 24c5-12 8.8-29.4 24-22.5C64.7 11 58 32.2 53.7 49 52 55.2 39.2 64.8 35.4 63.2 19.1 56.4 16.2 41.5 20 24m226.8 36.8c-8.6 7.5-17 7.6-22.2-1.5-9-16-8.6-32.8 3.3-47.2 2.5-3 13.8-3.6 16.3-1q20.8 22.7 2.6 49.7" fill="black"/></g><g id="glasses-variant09-a0417813"><path d="M265.7 17a80 80 0 0 1 35.1 44.7c15.8-3 30.7-5.8 46.4 2.2A98 98 0 0 1 367 29.2C382.5 13 417.7.8 443.2 9.4c26.2 8.8 44.9 26.2 52.7 51.2a76 76 0 0 1-11.3 67.8c-35.8 51-110.3 37.5-132.4-14q-5.4-12.4-6.3-25.8c-.6-10.5-5.3-15.8-15-17.3-11.9-1.8-21.2 1.8-25.4 13.9-3.3 9.1-3.2 19-7.4 28.2-13.3 29-37.9 47.4-71.8 47.1-28.5-.2-61.4-18-69-48.8-8.4-34-35.5-41.3-62.4-50.6l-68.2-24c-4.7-1.7-7.3-5.4-5.5-10 2.2-5.7 6.8-3.4 10.8-2 34 12.6 68.4 24.8 102.4 37.6 11.8 4.4 18.4-3.2 22.6-10.7 23.3-42.4 58.4-55.5 103-37.2 1.7.6 3.3 1.2 5.7 2.3" fill="black"/><path d="M192.6 62.4c-.8-.3 1 0 0 .4-6.7 2 50.6 52.8 55.7 48.5 3-2.5-49.5-46.3-55.7-49M213 38.6c-.9-.3 1 0-.1.4-6.7 2 50.7 52.8 55.7 48.5 3-2.5-49.5-46.3-55.6-49m175 23.9c-1-.3 1 0-.2.4-6.6 2 50.7 52.8 55.8 48.5 3-2.5-49.5-46.3-55.7-49m20.4-23.7c-.9-.3 1 0-.1.4-6.6 2 50.7 52.8 55.7 48.5 3-2.5-49.5-46.3-55.6-49" fill="white"/></g><g id="eyebrows-variant05-a0417813"><path d="M106.5 34.6c4.3 5.6 14.4 8.2 8.3 16.8-5.8 8.2-15.6 8.7-24.3 6.4q-14.3-3.5-27.1-10.6c-12.1-7-23.1-6.2-34.8.2-6.5 3.6-16 9.8-20.4 1.9-5-9.2 7-11.4 12.8-15.4 18-12.8 38.8-14 60-12.2 9.6.8 16.7 7.7 25.5 13m123.7 9.5c15.9-7.4 30.7-14.8 48.2-12.7a48 48 0 0 1 30 15.2c2.9 3.1 5 7.5 1.4 11.4-3.6 3.7-8.6 4.5-12.5.4-10-10.7-20.3-8.4-30.7-1.4-9 6.1-19.6 5.5-29.4 6.4-10.7 1-13.4-6.6-7-19.3" fill="black"/></g><clipPath id="clip-a0417813"><rect width="560" height="560" rx="0" ry="0"/></clipPath></defs><g clip-path="url(#clip-a0417813)"><rect width="560" height="560" fill="url(#background-color-a0417813)"/><use transform="translate(136 329)" href="#mouth-variant19-a0417813"/><use transform="translate(246 126)" href="#nose-variant06-a0417813"/><use transform="translate(150.2 189.6)" href="#eyes-variant05-a0417813"/><use transform="translate(-44.7 138.1)" href="#glasses-variant09-a0417813"/><use transform="translate(120 114)" href="#eyebrows-variant05-a0417813"/></g></svg>
